<svg width="35" height="34" viewBox="0 0 35 34" fill="none" xmlns="http://www.w3.org/2000/svg">
<path d="M11.8934 19.0993C13.8602 19.0993 15.4364 20.6909 15.4364 22.6716V27.4267C15.4364 29.3935 13.8602 30.9976 11.8934 30.9976H7.17872C5.2259 30.9976 3.63574 29.3935 3.63574 27.4267V22.6716C3.63574 20.6909 5.2259 19.0993 7.17872 19.0993H11.8934ZM27.9903 19.0993C29.9432 19.0993 31.5333 20.6909 31.5333 22.6716V27.4267C31.5333 29.3935 29.9432 30.9976 27.9903 30.9976H23.2757C21.3089 30.9976 19.7327 29.3935 19.7327 27.4267V22.6716C19.7327 20.6909 21.3089 19.0993 23.2757 19.0993H27.9903ZM11.8934 3.10059C13.8602 3.10059 15.4364 4.70469 15.4364 6.67285V11.428C15.4364 13.4087 13.8602 14.9988 11.8934 14.9988H7.17872C5.2259 14.9988 3.63574 13.4087 3.63574 11.428V6.67285C3.63574 4.70469 5.2259 3.10059 7.17872 3.10059H11.8934ZM27.9903 3.10059C29.9432 3.10059 31.5333 4.70469 31.5333 6.67285V11.428C31.5333 13.4087 29.9432 14.9988 27.9903 14.9988H23.2757C21.3089 14.9988 19.7327 13.4087 19.7327 11.428V6.67285C19.7327 4.70469 21.3089 3.10059 23.2757 3.10059H27.9903Z" fill="#031C30"/>
</svg>
