<svg width="42" height="42" viewBox="0 0 42 42" fill="none" xmlns="http://www.w3.org/2000/svg">
<path d="M0.928223 0.939453L0.930973 11.1508L10.9521 11.1535L10.9493 0.942203L0.928223 0.939453ZM15.9599 0.943579L15.9626 11.1549L25.9837 11.1576L25.981 0.946329L15.9599 0.943579ZM30.9915 0.947704L30.9943 11.159L41.0154 11.1618L41.0126 0.950454L30.9915 0.947704ZM0.932348 16.2564L0.935099 26.4677L10.9562 26.4705L10.9534 16.2592L0.932348 16.2564ZM15.964 16.2606L15.9668 26.4719L25.9879 26.4746L25.9851 16.2633L15.964 16.2606ZM30.9957 16.2647L30.9984 26.476L41.0195 26.4787L41.0168 16.2674L30.9957 16.2647ZM0.936474 31.5734L0.939224 41.7847L10.9603 41.7875L10.9576 31.5762L0.936474 31.5734ZM15.9681 31.5775L15.9709 41.7889L25.992 41.7916L25.9892 31.5803L15.9681 31.5775ZM30.9998 31.5817L31.0025 41.793L41.0236 41.7957L41.0209 31.5844L30.9998 31.5817Z" fill="#FFC107"/>
</svg>
