<svg width="28" height="27" viewBox="0 0 28 27" fill="none" xmlns="http://www.w3.org/2000/svg">
<ellipse cx="14" cy="13.5" rx="14" ry="13.5" fill="#CE0033"/>
<path d="M21 9.29412C20.4847 9.52059 19.9293 9.66941 19.3537 9.74059C19.9426 9.39765 20.3977 8.85412 20.6119 8.20059C20.0564 8.52412 19.4407 8.75059 18.7916 8.88C18.2629 8.32353 17.5201 8 16.6769 8C15.1042 8 13.8193 9.24235 13.8193 10.7759C13.8193 10.9959 13.8461 11.2094 13.8929 11.41C11.5105 11.2935 9.3891 10.1871 7.97706 8.51118C7.72945 8.91882 7.58891 9.39765 7.58891 9.90235C7.58891 10.8665 8.09082 11.7206 8.86711 12.2059C8.39197 12.2059 7.95029 12.0765 7.56214 11.8824V11.9018C7.56214 13.2476 8.55258 14.3735 9.86424 14.6259C9.4432 14.7378 9.00098 14.7533 8.57266 14.6712C8.75442 15.2228 9.1104 15.7054 9.59055 16.0513C10.0707 16.3972 10.6509 16.5889 11.2495 16.5994C10.2348 17.3762 8.97687 17.7961 7.6826 17.79C7.45507 17.79 7.22753 17.7771 7 17.7512C8.27151 18.5406 9.78394 19 11.4034 19C16.6769 19 19.5746 14.7682 19.5746 11.0994C19.5746 10.9765 19.5746 10.86 19.5679 10.7371C20.13 10.3488 20.6119 9.85706 21 9.29412Z" fill="white"/>
</svg>
