<svg width="17" height="15" viewBox="0 0 17 15" fill="none" xmlns="http://www.w3.org/2000/svg">
<path d="M9.31396 0.416992C10.2046 0.419117 10.6566 0.423367 11.0469 0.433284L11.2005 0.438242C11.3778 0.443909 11.5528 0.450992 11.7642 0.459492C12.6065 0.494909 13.1813 0.613909 13.6855 0.788867C14.208 0.968784 14.6482 1.21245 15.0884 1.60558C15.4909 1.95967 15.8024 2.38799 16.0012 2.86074C16.1967 3.31195 16.3297 3.8262 16.3693 4.58058C16.3788 4.76899 16.3867 4.92553 16.393 5.08491L16.3978 5.22233C16.4097 5.57083 16.4144 5.97528 16.416 6.77216L16.4168 7.30058V8.22849C16.4187 8.74515 16.4127 9.26182 16.3986 9.77833L16.3938 9.91574C16.3875 10.0751 16.3796 10.2317 16.3701 10.4201C16.3305 11.1745 16.1959 11.688 16.0012 12.1399C15.803 12.6129 15.4914 13.0413 15.0884 13.3951C14.6925 13.7551 14.2138 14.0338 13.6855 14.2118C13.1813 14.3867 12.6065 14.5057 11.7642 14.5412C11.5763 14.5491 11.3884 14.5562 11.2005 14.5624L11.0469 14.5667C10.6566 14.5766 10.2046 14.5815 9.31396 14.583L8.72338 14.5837H7.68709C7.10938 14.5854 6.53167 14.58 5.95413 14.5674L5.80055 14.5631C5.61261 14.5567 5.42472 14.5494 5.23688 14.5412C4.39455 14.5057 3.8198 14.3867 3.31471 14.2118C2.78641 14.0343 2.30789 13.7555 1.91267 13.3951C1.50975 13.0411 1.19798 12.6128 0.99909 12.1399C0.803548 11.6887 0.670548 11.1745 0.630965 10.4201C0.622144 10.252 0.614228 10.0839 0.607215 9.91574L0.603256 9.77833C0.588668 9.26182 0.58207 8.74516 0.583465 8.22849V6.77216C0.581255 6.2555 0.587061 5.73884 0.600881 5.22233L0.606423 5.08491C0.612756 4.92553 0.620673 4.76899 0.630173 4.58058C0.669756 3.8262 0.802756 3.31266 0.998298 2.86074C1.1971 2.38751 1.50949 1.95905 1.91346 1.60558C2.30858 1.24537 2.78679 0.96665 3.31471 0.788867C3.8198 0.613909 4.39376 0.494909 5.23688 0.459492C5.44746 0.450992 5.62321 0.443909 5.80055 0.438242L5.95413 0.433992C6.53141 0.421407 7.10885 0.415976 7.6863 0.4177L9.31396 0.416992ZM8.50013 3.95866C7.45032 3.95866 6.4435 4.3318 5.70117 4.99599C4.95884 5.66018 4.5418 6.56102 4.5418 7.50033C4.5418 8.43963 4.95884 9.34047 5.70117 10.0047C6.4435 10.6689 7.45032 11.042 8.50013 11.042C9.54995 11.042 10.5568 10.6689 11.2991 10.0047C12.0414 9.34047 12.4585 8.43963 12.4585 7.50033C12.4585 6.56102 12.0414 5.66018 11.2991 4.99599C10.5568 4.3318 9.54995 3.95866 8.50013 3.95866ZM8.50013 5.37533C8.81202 5.37528 9.12087 5.4302 9.40903 5.53695C9.6972 5.64369 9.95905 5.80018 10.1796 5.99747C10.4002 6.19477 10.5752 6.429 10.6946 6.6868C10.814 6.9446 10.8755 7.22091 10.8755 7.49997C10.8756 7.77903 10.8142 8.05537 10.6949 8.3132C10.5756 8.57104 10.4007 8.80532 10.1802 9.00268C9.95968 9.20004 9.69789 9.3566 9.40977 9.46343C9.12164 9.57027 8.81281 9.62528 8.50092 9.62533C7.87103 9.62533 7.26694 9.40144 6.82154 9.00293C6.37615 8.60441 6.12592 8.06391 6.12592 7.50033C6.12592 6.93674 6.37615 6.39624 6.82154 5.99772C7.26694 5.59921 7.87103 5.37533 8.50092 5.37533M12.6572 2.89616C12.3947 2.89616 12.143 2.98944 11.9574 3.15549C11.7718 3.32154 11.6676 3.54675 11.6676 3.78158C11.6676 4.0164 11.7718 4.24161 11.9574 4.40766C12.143 4.57371 12.3947 4.66699 12.6572 4.66699C12.9196 4.66699 13.1713 4.57371 13.3569 4.40766C13.5425 4.24161 13.6468 4.0164 13.6468 3.78158C13.6468 3.54675 13.5425 3.32154 13.3569 3.15549C13.1713 2.98944 12.9196 2.89616 12.6572 2.89616Z" fill="white"/>
</svg>
