<svg width="26" height="26" viewBox="0 0 26 26" fill="none" xmlns="http://www.w3.org/2000/svg">
<rect width="26" height="26" fill="black"/>
<path d="M2.88867 2.88867H7.22201V7.22201H2.88867V2.88867Z" fill="white"/>
<path d="M2.88867 10.8335H7.22201V15.1668H2.88867V10.8335Z" fill="white"/>
<path d="M2.88867 18.7778H7.22201V23.1112H2.88867V18.7778Z" fill="white"/>
<path d="M10.8335 10.8335H15.1668V15.1668H10.8335V10.8335Z" fill="white"/>
<path d="M10.8335 18.7778H15.1668V23.1112H10.8335V18.7778Z" fill="white"/>
<path d="M18.7778 10.8335H23.1112V15.1668H18.7778V10.8335Z" fill="white"/>
<path d="M18.7778 18.7778H23.1112V23.1112H18.7778V18.7778Z" fill="white"/>
<path d="M10.8335 7.22201H13.7224V7.14256L15.1668 4.69423V2.88867H10.8335V7.22201Z" fill="white"/>
<path d="M19.3917 0.82309L15.2606 7.9442C15.1644 8.08527 15.1093 8.2502 15.1011 8.42071C15.093 8.59121 15.1323 8.76064 15.2145 8.91021C15.2968 9.05978 15.4189 9.18365 15.5672 9.2681C15.7156 9.35255 15.8844 9.39427 16.055 9.38865H24.3244C24.4951 9.39427 24.6639 9.35255 24.8122 9.2681C24.9606 9.18365 25.0827 9.05978 25.1649 8.91021C25.2472 8.76064 25.2864 8.59121 25.2783 8.42071C25.2702 8.2502 25.215 8.08527 25.1189 7.9442L20.9878 0.82309C20.9063 0.683741 20.7898 0.568154 20.6498 0.487827C20.5097 0.4075 20.3511 0.365234 20.1897 0.365234C20.0283 0.365234 19.8697 0.4075 19.7297 0.487827C19.5897 0.568154 19.4731 0.683741 19.3917 0.82309Z" fill="white"/>
</svg>
