<svg width="51" height="52" viewBox="0 0 51 52" fill="none" xmlns="http://www.w3.org/2000/svg">
<path d="M25.6124 12.1475C33.5352 12.1475 39.5332 18.6434 39.5332 26.0752C39.5332 34.6945 32.503 40.0449 25.5845 40.0449C23.2969 40.0449 20.7582 39.4302 18.7217 38.2288C18.0103 37.7958 17.4105 37.4745 16.6433 37.7259L13.8257 38.5641C13.1143 38.7876 12.4727 38.2288 12.6819 37.4745L13.6165 34.3453C13.7699 33.9122 13.742 33.4512 13.5188 33.088C12.3192 30.8808 11.6357 28.464 11.6357 26.1171C11.6357 18.7691 17.5082 12.1475 25.6124 12.1475ZM31.9869 24.343C30.9966 24.343 30.2015 25.1393 30.2015 26.1311C30.2015 27.109 30.9966 27.9192 31.9869 27.9192C32.9773 27.9192 33.7724 27.109 33.7724 26.1311C33.7724 25.1393 32.9773 24.343 31.9869 24.343ZM25.5566 24.343C24.5802 24.329 23.7711 25.1393 23.7711 26.1171C23.7711 27.109 24.5662 27.9053 25.5566 27.9192C26.5469 27.9192 27.342 27.109 27.342 26.1311C27.342 25.1393 26.5469 24.343 25.5566 24.343ZM19.1262 24.343C18.1358 24.343 17.3408 25.1393 17.3408 26.1311C17.3408 27.109 18.1498 27.9192 19.1262 27.9192C20.1166 27.9053 20.9116 27.109 20.9116 26.1311C20.9116 25.1393 20.1166 24.343 19.1262 24.343Z" fill="#031C30"/>
</svg>
