<svg width="51" height="51" viewBox="0 0 51 51" fill="none" xmlns="http://www.w3.org/2000/svg">
<path d="M32.0922 11.7302C34.0987 11.6048 36.0774 12.3015 37.5684 13.6671C38.934 15.1581 39.6307 17.1367 39.5192 19.1572V32.1719C39.6446 34.1923 38.934 36.171 37.5823 37.662C36.0914 39.0275 34.0987 39.7242 32.0922 39.5988H19.0774C17.057 39.7242 15.0783 39.0275 13.5873 37.662C12.2217 36.171 11.525 34.1923 11.6504 32.1719V19.1572C11.525 17.1367 12.2217 15.1581 13.5873 13.6671C15.0783 12.3015 17.057 11.6048 19.0774 11.7302H32.0922ZM31.7299 18.0982C30.866 17.2343 29.4725 17.2343 28.6086 18.0982L27.675 19.0457C27.5356 19.1851 27.5356 19.422 27.675 19.5613C27.675 19.5613 27.7023 19.5885 27.751 19.6369L28.0938 19.9778C28.292 20.175 28.5395 20.4214 28.788 20.6691L29.6306 21.5113C29.8064 21.6879 29.9231 21.8063 29.9324 21.8187C30.0856 21.9859 30.1832 22.2088 30.1832 22.4596C30.1832 22.9613 29.7791 23.3793 29.2635 23.3793C29.0266 23.3793 28.8037 23.2818 28.6504 23.1285L26.3233 20.8154C26.2119 20.7039 26.0168 20.7039 25.9053 20.8154L19.2586 27.4621C18.7988 27.9219 18.534 28.535 18.5201 29.1899L18.4365 32.4923C18.4365 32.6735 18.4922 32.8407 18.6176 32.9661C18.743 33.0915 18.9102 33.1612 19.0914 33.1612H22.366C23.0348 33.1612 23.6758 32.8964 24.1635 32.4227L33.5414 23.017C34.3914 22.1531 34.3914 20.7597 33.5414 19.9097L31.7299 18.0982Z" fill="#031C30"/>
</svg>
